<svg xmlns="http://www.w3.org/2000/svg" width="1440" height="900" viewBox="0 0 1440 900">
  <rect width="1440" height="900" fill="#f7f9fc"/>
  <rect width="224" height="900" fill="#fff"/>
  <path d="M224 0V900" stroke="#e2e8f0"/>
  <rect x="20" y="20" width="32" height="32" rx="9" fill="#2563eb"/><text x="29" y="42" font-family="Inter,Arial" font-size="14" font-weight="700" fill="#fff">HR</text>
  <text x="64" y="41" font-family="Inter,Arial" font-size="15" font-weight="600" fill="#172033">HR Connect</text>
  <g font-family="Inter,Arial" font-size="13" fill="#475569"><text x="44" y="112">Dashboard</text><text x="44" y="154">Data Pegawai</text><text x="44" y="196">Perjalanan Dinas</text><text x="44" y="252">Struktur Organisasi</text><text x="44" y="294">Kehadiran</text><text x="44" y="336">Cuti &amp; Izin</text><text x="44" y="378">Payroll</text></g>
  <rect x="12" y="88" width="196" height="36" rx="8" fill="#eef4ff"/><circle cx="28" cy="106" r="5" fill="#2563eb"/>
  <rect x="224" width="1216" height="56" fill="#fff"/><path d="M224 56H1440" stroke="#e2e8f0"/><text x="256" y="35" font-family="Inter,Arial" font-size="16" font-weight="600" fill="#172033">Dashboard</text><text x="1202" y="35" font-family="Inter,Arial" font-size="12" fill="#64748b">Saturday, 22 August 2026</text>
  <rect x="256" y="88" width="1148" height="156" rx="18" fill="#14275c"/><circle cx="1328" cy="199" r="95" fill="none" stroke="#315bc1" stroke-width="32" opacity=".55"/><text x="288" y="132" font-family="Inter,Arial" font-size="14" fill="#bfdbfe">RINGKASAN AKTIVITAS</text><text x="288" y="174" font-family="Inter,Arial" font-size="29" font-weight="700" fill="#fff">Selamat datang di HR Connect.</text><text x="288" y="206" font-family="Inter,Arial" font-size="14" fill="#cbd5e1">Pantau informasi kepegawaian dan aktivitas hari ini dari satu tempat.</text>
  <g font-family="Inter,Arial"><text x="260" y="285" font-size="11" font-weight="700" fill="#64748b">RINGKASAN</text>
    <g><rect x="256" y="302" width="269" height="126" rx="14" fill="#fff" stroke="#e2e8f0"/><rect x="280" y="326" width="42" height="42" rx="12" fill="#eff6ff"/><circle cx="301" cy="347" r="10" fill="none" stroke="#2563eb" stroke-width="2"/><text x="280" y="394" font-size="13" fill="#64748b">Total Pegawai</text><text x="280" y="416" font-size="25" font-weight="700" fill="#172033">128</text></g>
    <g><rect x="550" y="302" width="269" height="126" rx="14" fill="#fff" stroke="#e2e8f0"/><rect x="574" y="326" width="42" height="42" rx="12" fill="#ecfdf5"/><text x="574" y="394" font-size="13" fill="#64748b">Hadir Hari Ini</text><text x="574" y="416" font-size="25" font-weight="700" fill="#172033">116</text></g>
    <g><rect x="844" y="302" width="269" height="126" rx="14" fill="#fff" stroke="#e2e8f0"/><rect x="868" y="326" width="42" height="42" rx="12" fill="#fffbeb"/><text x="868" y="394" font-size="13" fill="#64748b">Cuti Pending</text><text x="868" y="416" font-size="25" font-weight="700" fill="#172033">7</text></g>
    <g><rect x="1138" y="302" width="266" height="126" rx="14" fill="#fff" stroke="#e2e8f0"/><rect x="1162" y="326" width="42" height="42" rx="12" fill="#f0f9ff"/><text x="1162" y="394" font-size="13" fill="#64748b">Perjalanan Dinas</text><text x="1162" y="416" font-size="25" font-weight="700" fill="#172033">4</text></g>
    <text x="260" y="472" font-size="11" font-weight="700" fill="#64748b">AKSES CEPAT</text>
    <g fill="#fff" stroke="#e2e8f0"><rect x="256" y="490" width="210" height="112" rx="14"/><rect x="484" y="490" width="210" height="112" rx="14"/><rect x="712" y="490" width="210" height="112" rx="14"/><rect x="940" y="490" width="210" height="112" rx="14"/><rect x="1168" y="490" width="236" height="112" rx="14"/></g>
    <g font-size="13" font-weight="600" fill="#334155"><text x="281" y="572">Data Pegawai</text><text x="509" y="572">Rekap Kehadiran</text><text x="737" y="572">Rekap Cuti</text><text x="965" y="572">Perjalanan Dinas</text><text x="1193" y="572">Payroll</text></g>
    <text x="260" y="650" font-size="11" font-weight="700" fill="#64748b">PENGAJUAN CUTI TERBARU</text><rect x="256" y="668" width="1148" height="174" rx="14" fill="#fff" stroke="#e2e8f0"/><rect x="256" y="668" width="1148" height="42" rx="14" fill="#f8fafc"/><g font-size="12" fill="#64748b"><text x="280" y="694">PEGAWAI</text><text x="570" y="694">JENIS CUTI</text><text x="830" y="694">TANGGAL</text><text x="1195" y="694">STATUS</text></g><path d="M256 754H1404M256 798H1404" stroke="#eef2f7"/><g font-size="13" fill="#334155"><text x="280" y="738">Pegawai Demo</text><text x="570" y="738">Cuti Tahunan</text><text x="830" y="738">25 Aug 2026 - 27 Aug 2026</text><text x="280" y="782">Pegawai Demo</text><text x="570" y="782">Izin Pribadi</text><text x="830" y="782">28 Aug 2026</text></g><rect x="1190" y="721" width="72" height="23" rx="11" fill="#fef3c7"/><text x="1203" y="737" font-size="11" fill="#a16207">Pending</text></g>
</svg>
